<svg xmlns="http://www.w3.org/2000/svg" fill="none" viewBox="0 0 48 48" id="Ai-File-Spark--Streamline-Plump">
  <desc>
    Ai File Spark Streamline Icon: https://streamlinehq.com
  </desc>
  <g id="ai-file-spark--document-paper-artificial-intellitence-ai">
    <path id="Union" fill="currentColor" fill-rule="evenodd" d="M35.4556 8.90582c-0.161 -1.67853 -0.2218 -4.30722 -0.2405 -6.56155 -0.001 -0.12776 -0.0019 -0.2541 -0.0027 -0.37877 1.3511 0.68256 3.4511 2.02553 6.0983 4.62081 2.7986 2.74378 4.1696 4.88799 4.8262 6.19889 -0.1717 -0.0013 -0.3468 -0.0029 -0.5246 -0.0047 -2.278 -0.0232 -4.9309 -0.0884 -6.6109 -0.2495 -1.8628 -0.1787 -3.3579 -1.6669 -3.5458 -3.62518m11.1853 6.88278c0.0423 1.6504 0.0669 3.4803 0.0669 5.5034 0 7.5266 -0.3411 12.3781 -0.6595 15.2676 -0.2428 2.2023 -1.8914 3.8538 -4.0928 4.1054 -2.6816 0.3064 -6.9837 0.627 -13.2476 0.627 -3.0148 0 -5.5751 -0.0743 -7.7191 -0.1855l1.0312 -0.3673c3.9867 -1.42 3.9867 -7.0581 0 -8.4782l-1.0536 -0.3753c-2.264 -0.8064 -4.0455 -2.5879 -4.8519 -4.8518l-0.3753 -1.0536c-0.8159 -2.2906 -3.0241 -3.2651 -5.0248 -2.9236 -0.0042 -0.5712 -0.0064 -1.1593 -0.0064 -1.7647 0 -7.5267 0.3411 -12.37814 0.6596 -15.26758 0.2427 -2.20236 1.8913 -3.85382 4.0927 -4.1054 2.6816 -0.30646 6.9837 -0.62703 13.2476 -0.62703 1.2436 0 2.4098 0.01264 3.5014 0.03529 0.0011 0.33237 0.003 0.68148 0.0059 1.04178 0.0186 2.24829 0.079 4.99813 0.2541 6.82322 0.3212 3.34852 2.9126 6.00522 6.2457 6.32502 1.8237 0.1749 4.5957 0.24 6.8667 0.2631 0.3664 0.0037 0.7213 0.0064 1.0592 0.0082M19.9597 38.2885c-1.4894 0.5305 -2.827 1.368 -3.9385 2.4382 -1.2115 1.1665 -2.1545 2.6095 -2.7327 4.233l-0.3753 1.0536c-0.4734 1.3289 -2.3528 1.3289 -2.8261 0l-0.37531 -1.0536c-1.10881 -3.1129 -3.55833 -5.5624 -6.67124 -6.6712l-1.05364 -0.3753c-1.32891 -0.4734 -1.328895 -2.3528 0.00001 -2.8261l1.05362 -0.3753c3.11292 -1.1088 5.56244 -3.5583 6.67125 -6.6713l0.37531 -1.0536c0.1335 -0.3748 0.3789 -0.6439 0.673 -0.8073 0.7487 -0.4159 1.8132 -0.1468 2.1531 0.8073l0.3753 1.0536c1.1088 3.113 3.5583 5.5625 6.6712 6.6713l1.0536 0.3753c1.3289 0.4733 1.329 2.3527 0 2.8261z" clip-rule="evenodd" stroke-width="1"></path>
  </g>
</svg>