<svg xmlns="http://www.w3.org/2000/svg" fill="none" viewBox="0 0 48 48" id="Allergens-Lupin--Streamline-Plump">
  <desc>
    Allergens Lupin Streamline Icon: https://streamlinehq.com
  </desc>
  <g id="allergens-lupin--lupin-food-bread-allergens-allergy">
    <path id="Union" fill="currentColor" fill-rule="evenodd" d="M12.4989 0.5C9.77594 0.5 6.99496 0.946525 4.88975 2.63066 2.73847 4.35165 1.5 7.19075 1.5 11.4988c0 4.308 1.23841 7.1471 3.38967 8.8681 2.10519 1.6842 4.88617 2.1307 7.60923 2.1307 3.3412 0 6.4788 -1.4986 8.5409 -4.0041 -0.4435 -0.2355 -0.9935 -0.584 -1.5452 -1.0805 -1.2735 -1.1462 -2.4966 -3.0356 -2.4966 -5.915 0 -2.87926 1.2231 -4.76873 2.4966 -5.91489 0.5513 -0.49621 1.101 -0.84459 1.5443 -1.08001C18.9767 1.99821 15.8395 0.5 12.4989 0.5Zm10.9989 10.9988c0 1.6085 -0.3207 3.0969 -0.8919 4.4255 -0.02 -0.0096 -0.0407 -0.0197 -0.062 -0.0304 -0.2828 -0.1414 -0.6637 -0.3699 -1.0424 -0.7108 -0.7265 -0.6538 -1.5035 -1.7644 -1.5035 -3.6851 0 -1.92065 0.777 -3.03117 1.5035 -3.68501 0.3787 -0.34087 0.7596 -0.56943 1.0424 -0.7108 0.0211 -0.01058 0.0417 -0.02063 0.0615 -0.03015 0.5715 1.3289 0.8924 2.81771 0.8924 4.42676ZM43.11 15.1307C41.0048 13.4465 38.2238 13 35.5009 13c-3.3406 0 -6.4778 1.4982 -8.54 4.003 0.4434 0.2354 0.9931 0.5838 1.5445 1.0801 1.2735 1.1462 2.4966 3.0356 2.4966 5.9149 0 2.8794 -1.2231 4.7688 -2.4966 5.915 -0.5518 0.4966 -1.1019 0.8451 -1.5454 1.0806 2.0622 2.5054 5.1997 4.004 8.5409 4.004 2.723 0 5.504 -0.4465 7.6092 -2.1307 2.1513 -1.721 3.3897 -4.5601 3.3897 -8.8681s-1.2385 -7.1472 -3.3898 -8.8681ZM25.3939 28.4244l0.0197 -0.0095 0.0425 -0.021c0.2828 -0.1414 0.6637 -0.3699 1.0424 -0.7108 0.7265 -0.6538 1.5035 -1.7644 1.5035 -3.6851 0 -1.9206 -0.777 -3.0312 -1.5035 -3.685 -0.3787 -0.3409 -0.7596 -0.5694 -1.0424 -0.7108 -0.0212 -0.0106 -0.0418 -0.0207 -0.0617 -0.0303 -0.5715 1.329 -0.8924 2.8178 -0.8924 4.4269 0 1.6086 0.3207 3.097 0.8919 4.4256Zm-20.50415 -0.7937C6.99496 25.9465 9.77594 25.5 12.4989 25.5c3.3406 0 6.4778 1.4982 8.54 4.0031 -0.4433 0.2354 -0.993 0.5838 -1.5443 1.08 -1.2735 1.1462 -2.4966 3.0356 -2.4966 5.9149 0 2.8794 1.2231 4.7688 2.4966 5.915 0.5517 0.4965 1.1017 0.845 1.5452 1.0805 -2.0621 2.5055 -5.1997 4.0041 -8.5409 4.0041 -2.72306 0 -5.50404 -0.4465 -7.60923 -2.1307C2.73841 43.6459 1.5 40.8068 1.5 36.4988s1.23847 -7.1472 3.38975 -8.8681ZM22.6059 40.9243c0.5712 -1.3286 0.8919 -2.817 0.8919 -4.4255 0 -1.609 -0.3209 -3.0979 -0.8924 -4.4268 -0.011 0.0053 -0.0222 0.0108 -0.0336 0.0164 -0.0092 0.0045 -0.0185 0.0091 -0.0279 0.0138 -0.2828 0.1414 -0.6637 0.3699 -1.0424 0.7108 -0.7265 0.6538 -1.5035 1.7644 -1.5035 3.685 0 1.9207 0.777 3.0313 1.5035 3.6851 0.3787 0.3409 0.7596 0.5694 1.0424 0.7108 0.0213 0.0107 0.042 0.0208 0.062 0.0304Z" clip-rule="evenodd" stroke-width="1"></path>
  </g>
</svg>