<svg xmlns="http://www.w3.org/2000/svg" fill="none" viewBox="0 0 48 48">
  <g id="attach-file-add--attach-file-add-edit-mail-message">
    <path id="Union" fill="currentColor" fill-rule="evenodd" d="M11.5 47.5c1.0282 0 2.0758 -0.0505 3.0807 -0.1284C18.974 47.0313 22 43.2036 22 38.9416V15.8019c0 -1.479 -0.9718 -2.9421 -2.6221 -3.1706 -0.5444 -0.0754 -1.182 -0.1313 -1.8779 -0.1313s-1.3335 0.0559 -1.8779 0.1313C13.9718 12.8598 13 14.3229 13 15.8019v21.653c0 0.6204 -0.3334 0.9334 -0.6325 0.9792 -0.2582 0.0395 -0.5496 0.0659 -0.8675 0.0659 -0.3179 0 -0.6093 -0.0264 -0.8675 -0.0659 -0.2991 -0.0458 -0.6325 -0.3588 -0.6325 -0.9792V14.7801c0 -2.7076 1.7874 -4.92201 4.2896 -5.14012C15.259 9.55548 16.338 9.5 17.5 9.5s2.241 0.05548 3.2104 0.13998C23.2126 9.85809 25 12.0725 25 14.7801v17.4376c0.9541 -1.3162 2.5148 -2.0364 4.0194 -2.1015 0.1825 -0.0079 0.3803 -0.0157 0.5943 -0.0235 0.0077 -0.214 0.0156 -0.4118 0.0235 -0.5943 0.0959 -2.2162 1.613 -4.5542 4.3628 -4.8958V13.0602C34 6.35121 29.3925 0.755432 22.5234 0.565277 21.0409 0.524242 19.3727 0.5 17.5 0.5c-1.8727 0 -3.5409 0.024242 -5.0234 0.065277C5.60747 0.755432 1 6.35121 1 13.0602v25.8814c0 4.262 3.026 8.0897 7.41926 8.43 1.00498 0.0779 2.05254 0.1284 3.08074 0.1284ZM34 27.6634c-0.8153 0.2699 -1.326 1.0496 -1.3656 1.9647 -0.0341 0.7879 -0.0685 1.8907 -0.0903 3.395 -1.5043 0.0218 -2.6071 0.0562 -3.395 0.0903 -1.0667 0.0462 -1.9493 0.7323 -2.0551 1.7948 -0.0433 0.4356 -0.073 0.9633 -0.073 1.5918 0 0.6285 0.0297 1.1562 0.073 1.5918 0.1058 1.0625 0.9884 1.7486 2.0551 1.7948 0.7879 0.0341 1.8907 0.0685 3.395 0.0903 0.0049 0.3404 0.0105 0.6603 0.0166 0.9606 0.0208 1.0267 0.0473 1.8248 0.0737 2.4344 0.0462 1.0666 0.7323 1.9493 1.7948 2.0551 0.4356 0.0433 0.9633 0.073 1.5918 0.073 0.6285 0 1.1562 -0.0297 1.5918 -0.073 1.0625 -0.1058 1.7486 -0.9885 1.7948 -2.0551 0.0341 -0.7879 0.0685 -1.8907 0.0903 -3.395 1.5043 -0.0218 2.6071 -0.0562 3.395 -0.0903 1.0666 -0.0462 1.9493 -0.7323 2.055 -1.7948 0.0434 -0.4356 0.0731 -0.9633 0.0731 -1.5918 0 -0.6285 -0.0297 -1.1562 -0.0731 -1.5918 -0.1057 -1.0625 -0.9884 -1.7486 -2.055 -1.7948 -0.7879 -0.0341 -1.8907 -0.0685 -3.395 -0.0903 -0.0218 -1.5043 -0.0562 -2.6071 -0.0903 -3.395 -0.0462 -1.0666 -0.7323 -1.9493 -1.7948 -2.0551 -0.4356 -0.0433 -0.9633 -0.073 -1.5918 -0.073 -0.6285 0 -1.1562 0.0297 -1.5918 0.073 -0.1509 0.0151 -0.2942 0.0458 -0.4292 0.0904Z" clip-rule="evenodd" stroke-width="1"></path>
  </g>
</svg>