<svg xmlns="http://www.w3.org/2000/svg" fill="none" viewBox="0 0 48 48" id="Bell-Notification--Streamline-Plump">
  <desc>
    Bell Notification Streamline Icon: https://streamlinehq.com
  </desc>
  <g id="Solid/Interface Essential/Alerts/bell-notification--alert-bell-ring-notification-alarm">
    <path id="Union" fill="currentColor" fill-rule="evenodd" d="M24.0006 0.5C15.309 0.5 8.07085 7.16763 7.35887 15.8301l-0.53874 6.5547c-0.18732 2.279 -0.91099 4.4814 -2.11192 6.4274l-1.877 3.0414c-0.7898 1.2797 -1.08929 2.784 -0.59223 4.1402 0.51857 1.4149 1.77876 2.3273 3.38371 2.5715 3.17614 0.4833 8.71641 0.9347 18.37791 0.9347 9.6616 0 15.2019 -0.4514 18.378 -0.9347 1.605 -0.2442 2.8651 -1.1566 3.3837 -2.5715 0.4971 -1.3562 0.1976 -2.8605 -0.5922 -4.1402l-1.877 -3.0415c-1.2009 -1.9459 -1.9246 -4.1483 -2.1119 -6.4273l-0.5388 -6.5547C39.9304 7.16763 32.6923 0.5 24.0006 0.5Zm-8.5045 41.8613c2.4245 0.0874 5.238 0.1385 8.5049 0.1385 3.2665 0 6.0797 -0.0511 8.5039 -0.1384 -1.5576 3.1192 -4.7808 5.2615 -8.5044 5.2615 -3.7236 0 -6.9468 -2.1423 -8.5044 -5.2616ZM25.0007 5.25c-0.9665 0 -1.75 0.7835 -1.75 1.75s0.7835 1.75 1.75 1.75c3.6545 0 6.9166 3.0805 7.2554 7.3873 0.0758 0.9635 0.9184 1.6831 1.8819 1.6073 0.9635 -0.0758 1.6832 -0.9183 1.6073 -1.8819C35.2832 9.98899 30.7258 5.25 25.0007 5.25Z" clip-rule="evenodd" stroke-width="1"></path>
  </g>
</svg>