<svg xmlns="http://www.w3.org/2000/svg" fill="none" viewBox="0 0 48 48" id="Calendar-Event--Streamline-Plump">
  <desc>
    Calendar Event Streamline Icon: https://streamlinehq.com
  </desc>
  <g id="Solid/Interface Essential/Calendar/calendar-event">
    <path id="Subtract" fill="currentColor" fill-rule="evenodd" d="M37.7589 3.5387c0.0248 0.6735 0.0441 1.483 0.0461 2.4012 0.8941 0.0508 1.696 0.1037 2.4086 0.1561 3.3504 0.2464 5.9854 2.7972 6.2739 6.1687 0.261 3.0521 0.5212 7.7378 0.5212 14.2918 0 6.5541 -0.2602 11.2397 -0.5212 14.2918 -0.2885 3.3715 -2.9235 5.9223 -6.2739 6.1688 -3.3413 0.2456 -8.6467 0.5029 -16.2136 0.5029s-12.8723 -0.2573 -16.2135 -0.5029c-3.3506 -0.2465 -5.9855 -2.7973 -6.2739 -6.1688 -0.2611 -3.0521 -0.5213 -7.7378 -0.5213 -14.2918s0.2602 -11.2397 0.5213 -14.2917C1.801 8.8932 4.4359 6.3424 7.7865 6.096c0.7125 -0.0524 1.5144 -0.1053 2.4085 -0.1561 0.002 -0.9182 0.0213 -1.7277 0.0461 -2.4012 0.0575 -1.558 1.0597 -2.9246 2.7374 -3.0232 0.3767 -0.0221 0.8097 -0.0355 1.3067 -0.0355s0.9301 0.0134 1.3067 0.0355c1.6777 0.0986 2.68 1.4652 2.7374 3.0232 0.0222 0.6001 0.0399 1.3083 0.0449 2.105 1.7152 -0.032 3.5886 -0.0507 5.6258 -0.0507s3.9106 0.0187 5.6258 0.0507c0.0051 -0.7967 0.0227 -1.5049 0.0449 -2.105 0.0574 -1.558 1.0597 -2.9246 2.7374 -3.0232 0.3766 -0.0221 0.8097 -0.0355 1.3067 -0.0355s0.93 0.0134 1.3067 0.0355c1.6777 0.0986 2.6799 1.4652 2.7374 3.0232ZM11.1343 34.644c-1.3088 -0.0745 -2.3055 -1.0713 -2.3801 -2.38 -0.0518 -0.9091 -0.0933 -2.1195 -0.0933 -3.6623 0 -1.5428 0.0415 -2.7531 0.0933 -3.6622 0.0746 -1.3088 1.0713 -2.3055 2.3801 -2.3801 0.9091 -0.0518 2.1194 -0.0933 3.6622 -0.0933 1.5428 0 2.7532 0.0415 3.6623 0.0933 1.3087 0.0746 2.3055 1.0713 2.38 2.3801 0.0519 0.9091 0.0934 2.1194 0.0934 3.6622 0 1.5428 -0.0415 2.7532 -0.0934 3.6623 -0.0745 1.3087 -1.0713 2.3055 -2.38 2.38 -0.9091 0.0519 -2.1195 0.0934 -3.6623 0.0934 -1.5428 0 -2.7531 -0.0415 -3.6622 -0.0934Z" clip-rule="evenodd" stroke-width="1"></path>
  </g>
</svg>