<svg xmlns="http://www.w3.org/2000/svg" fill="none" viewBox="0 0 48 48" id="Chat-Two-Bubbles-Square-Text-1--Streamline-Plump">
  <desc>
    Chat Two Bubbles Square Text 1 Streamline Icon: https://streamlinehq.com
  </desc>
  <g id="chat-two-bubbles-square-text-1">
    <path id="Union" fill="currentColor" fill-rule="evenodd" d="M19.9966 1.0176c-5.9069 0 -10.1736 0.1835 -13.0006 0.3723 -3.2835 0.2193 -5.8724 2.71 -6.1342 6.0213C0.6626 9.9305 0.48 13.5884 0.48 18.5325s0.1826 8.602 0.3818 11.1213c0.2618 3.3113 2.8507 5.802 6.1342 6.0213l0.1412 0.0095 0.0017 0.0001c0.1134 0.0077 0.2291 0.0155 0.3471 0.0229v3.1778c0 2.0659 2.3619 3.2417 4.0103 1.9965l4.8078 -3.6318c-0.0238 -0.1764 -0.0423 -0.3549 -0.0551 -0.5352 -0.1379 -1.9425 -0.2558 -4.6369 -0.2558 -8.1739s0.1179 -6.2314 0.2558 -8.174c0.2954 -4.1592 3.5627 -7.3251 7.6643 -7.5865 2.1 -0.1338 5.0936 -0.2531 9.0944 -0.2531 2.53 0 4.6571 0.0476 6.4103 0.1166 -0.0719 -2.1072 -0.1767 -3.8432 -0.2866 -5.2329 -0.2618 -3.3112 -2.8507 -5.8019 -6.1341 -6.0212 -2.8271 -0.1888 -7.0938 -0.3723 -13.0007 -0.3723Zm13.0111 14.0119c-3.9513 0 -6.8916 0.1178 -8.9352 0.248 -2.8712 0.183 -5.1223 2.3756 -5.3277 5.2668 -0.1335 1.88 -0.2495 4.5151 -0.2495 7.9967 0 3.4816 0.116 6.1167 0.2495 7.9967 0.2054 2.8912 2.4565 5.0838 5.3277 5.2668 1.6748 0.1067 3.9517 0.205 6.8936 0.2371l5.4844 4.3875c1.6432 1.3145 4.0635 0.1366 4.0635 -1.9552v-2.589c0.5177 -0.0255 0.9936 -0.0527 1.4288 -0.0804 2.8712 -0.183 5.1223 -2.3756 5.3277 -5.2668 0.1335 -1.88 0.2495 -4.5151 0.2495 -7.9967 0 -3.4816 -0.116 -6.1167 -0.2495 -7.9967 -0.2054 -2.8912 -2.4565 -5.0838 -5.3277 -5.2668 -2.0436 -0.1302 -4.9839 -0.248 -8.9351 -0.248Zm-6.0051 7.5064c-1.1056 0 -2.0017 0.8961 -2.0017 2.0017s0.8961 2.0017 2.0017 2.0017h12.0102c1.1055 0 2.0017 -0.8962 2.0017 -2.0017s-0.8962 -2.0017 -2.0017 -2.0017H27.0026Zm0 8.0068c-1.1056 0 -2.0017 0.8962 -2.0017 2.0017s0.8961 2.0017 2.0017 2.0017h6.0051c1.1055 0 2.0017 -0.8962 2.0017 -2.0017s-0.8962 -2.0017 -2.0017 -2.0017h-6.0051Z" clip-rule="evenodd" stroke-width="1"></path>
  </g>
</svg>