<svg xmlns="http://www.w3.org/2000/svg" fill="none" viewBox="0 0 48 48" id="Chat-Bubble-Square-Add--Streamline-Plump">
  <desc>
    Chat Bubble Square Add Streamline Icon: https://streamlinehq.com
  </desc>
  <g id="chat-bubble-square-add---message-bubble-chat-square-add-plus-new">
    <path id="Subtract" fill="currentColor" fill-rule="evenodd" d="M7.18597 0.993447C10.5897 0.755443 16.0861 0.5 24 0.5c7.9139 0 13.4103 0.255445 16.814 0.49345 3.2608 0.22801 5.8603 2.68468 6.1601 5.98103C47.239 9.88692 47.5 14.3233 47.5 20.5s-0.261 10.6131 -0.5259 13.5255c-0.2998 3.2964 -2.8993 5.753 -6.1601 5.9811 -3.2747 0.2289 -8.4865 0.4741 -15.9245 0.4923l-7.2625 6.225c-1.6217 1.39 -4.127 0.2378 -4.127 -1.8981v-4.4971c-2.6016 -0.0917 -4.69465 -0.2089 -6.31403 -0.3221 -3.26076 -0.2281 -5.86024 -2.6847 -6.16009 -5.9811C0.760959 31.1131 0.5 26.6767 0.5 20.5c0.000002 -6.1767 0.260961 -10.61308 0.52588 -13.52552 0.29985 -3.29635 2.89933 -5.75302 6.16009 -5.981033ZM22.6528 9.57517C23.0315 9.52976 23.4786 9.5 24 9.5s0.9685 0.02976 1.3472 0.07517c1.2914 0.15484 2.0005 1.27463 2.0433 2.43213 0.0353 0.9525 0.073 2.3983 0.0937 4.5085 2.1102 0.0207 3.556 0.0584 4.5085 0.0937 1.1575 0.0428 2.2773 0.7519 2.4321 2.0433 0.0454 0.3787 0.0752 0.8258 0.0752 1.3472s-0.0298 0.9685 -0.0752 1.3472c-0.1548 1.2914 -1.2746 2.0005 -2.4321 2.0433 -0.9525 0.0353 -2.3983 0.073 -4.5085 0.0937 -0.0207 2.1102 -0.0584 3.556 -0.0937 4.5085 -0.0428 1.1575 -0.7519 2.2773 -2.0433 2.4321 -0.3787 0.0454 -0.8258 0.0752 -1.3472 0.0752s-0.9685 -0.0298 -1.3472 -0.0752c-1.2914 -0.1548 -2.0005 -1.2746 -2.0433 -2.4321 -0.0353 -0.9525 -0.073 -2.3983 -0.0937 -4.5085 -2.1102 -0.0207 -3.556 -0.0584 -4.5085 -0.0937 -1.1574 -0.0428 -2.2773 -0.7519 -2.4321 -2.0433 -0.0454 -0.3787 -0.0752 -0.8258 -0.0752 -1.3472s0.0298 -0.9685 0.0752 -1.3472c0.1548 -1.2914 1.2746 -2.0005 2.4321 -2.0433 0.9525 -0.0353 2.3983 -0.073 4.5085 -0.0937 0.0207 -2.1102 0.0584 -3.556 0.0937 -4.5085 0.0428 -1.1575 0.7519 -2.27729 2.0433 -2.43213Z" clip-rule="evenodd" stroke-width="1"></path>
  </g>
</svg>