<svg xmlns="http://www.w3.org/2000/svg" fill="none" viewBox="0 0 48 48" id="Coin-Diagonal--Streamline-Plump">
  <desc>
    Coin Diagonal Streamline Icon: https://streamlinehq.com
  </desc>
  <g id="coin-diagonal">
    <path id="Union" fill="currentColor" fill-rule="evenodd" d="M30.7486 30.7497c8.9461 -8.9459 11.3634 -21.033 5.3995 -26.997 -5.9641 -5.964 -18.051 -3.5466 -26.997 5.3994 -8.946 8.946 -11.3634 21.033 -5.3994 26.997 5.964 5.9641 18.0509 3.5466 26.9969 -5.3994Zm11.5858 -13.9556c-0.2229 1.1146 -0.5278 2.2377 -0.9114 3.3601l5.4072 5.4071c1.4297 -5.3892 0.6691 -10.4595 -2.5818 -13.7105l-1.5958 -1.5957c0.2473 2.132 0.1194 4.3511 -0.3182 6.539Zm-2.2992 6.7242c-1.4145 2.9219 -3.3503 5.7757 -5.7483 8.3949l5.7198 5.7197c2.4458 -2.6937 4.3257 -5.6209 5.5935 -8.5497l-5.565 -5.5649ZM31.911 34.2892c-2.62 2.3989 -5.4746 4.3352 -8.3975 5.75l5.5631 5.5631c2.93 -1.2672 5.8588 -3.1472 8.5541 -5.5936l-5.7197 -5.7195Zm-15.1202 8.0484c-2.1845 0.4369 -4.4001 0.5651 -6.5291 0.3193l1.5902 1.5904c3.2492 3.2492 8.3159 4.0107 13.7019 2.5841l-5.4046 -5.4046c-1.1218 0.3834 -2.2443 0.6881 -3.3584 0.9108Z" clip-rule="evenodd" stroke-width="1"></path>
  </g>
</svg>