<svg xmlns="http://www.w3.org/2000/svg" fill="none" viewBox="0 0 48 48" id="Delete-1--Streamline-Plump">
  <desc>
    Delete 1 Streamline Icon: https://streamlinehq.com
  </desc>
  <g id="Solid/Interface Essential/Add Remove Delete/delete-1--remove-add-button-buttons-delete-cross-x-mathematics-multiply-math">
    <path id="Union" fill="currentColor" d="M44.7021 0.7704c-0.6868 -0.3728 -1.3995 -0.3517 -2.035 -0.1323 -0.6219 0.2148 -1.1856 0.6222 -1.6463 1.0605 -2.5083 2.387 -8.5323 8.1658 -17.0209 16.6073C15.5115 9.8644 9.4874 4.0856 6.9791 1.6986 6.5186 1.2603 5.9548 0.8529 5.3329 0.6381 4.6974 0.4187 3.9847 0.3976 3.2979 0.7704c-0.4425 0.2401 -0.9254 0.5908 -1.431 1.0964 -0.5055 0.5055 -0.8562 0.9885 -1.0964 1.4309 -0.3728 0.6868 -0.3517 1.3996 -0.1322 2.0351 0.2147 0.6219 0.6222 1.1856 1.0605 1.6462 2.3869 2.5083 8.1657 8.5324 16.6073 17.0209C9.8644 32.4886 4.0854 38.5127 1.6984 41.0211c-0.4382 0.4605 -0.8457 1.0242 -1.0604 1.6461 -0.2195 0.6356 -0.2406 1.3483 0.1322 2.0351 0.2402 0.4424 0.5909 0.9254 1.0964 1.431 0.5056 0.5054 0.9885 0.8561 1.431 1.0964 0.6868 0.3727 1.3995 0.3516 2.035 0.1322 0.6219 -0.2148 1.1856 -0.6222 1.6462 -1.0605C9.4871 43.9144 15.5113 38.1356 24 29.6938c8.4887 8.4418 14.5129 14.2206 17.0212 16.6076 0.4605 0.4383 1.0242 0.8457 1.6461 1.0605 0.6356 0.2194 1.3483 0.2405 2.0351 -0.1322 0.4424 -0.2403 0.9254 -0.591 1.431 -1.0964 0.5055 -0.5056 0.8562 -0.9886 1.0964 -1.431 0.3728 -0.6868 0.3517 -1.3995 0.1322 -2.0351 -0.2147 -0.6219 -0.6222 -1.1856 -1.0605 -1.6461 -2.387 -2.5084 -8.1658 -8.5325 -16.6076 -17.0212C38.1354 15.5114 43.9143 9.4873 46.3012 6.979c0.4384 -0.4606 0.8457 -1.0243 1.0605 -1.6462 0.2195 -0.6355 0.2406 -1.3483 -0.1323 -2.0351 -0.2401 -0.4424 -0.5908 -0.9254 -1.0964 -1.4309 -0.5055 -0.5055 -0.9884 -0.8562 -1.4309 -1.0964Z" stroke-width="1"></path>
  </g>
</svg>