<svg xmlns="http://www.w3.org/2000/svg" fill="none" viewBox="0 0 48 48" id="Edit-Image-Photo--Streamline-Plump">
  <desc>
    Edit Image Photo Streamline Icon: https://streamlinehq.com
  </desc>
  <g id="edit-image-photo">
    <path id="Union" fill="currentColor" fill-rule="evenodd" d="M7.00262 39.0814C9.83164 39.2938 14.0974 39.5 20 39.5c0.3706 0 0.7348 -0.0008 1.0925 -0.0024l0.0061 -0.0734c0.0943 -1.1268 0.5024 -2.1163 1.0662 -2.9338 -0.695 0.0062 -1.4166 0.0096 -2.1653 0.0096 -6.2745 0 -10.64864 -0.2357 -13.37233 -0.457 -1.4577 -0.1185 -2.55214 -1.2129 -2.67058 -2.6706 -0.17657 -2.1733 -0.36235 -5.3974 -0.43022 -9.7994 5.01136 -4.8705 8.39603 -7.4463 10.43643 -8.7818 1.6421 -1.0748 3.6338 -0.8775 5.1256 0.3401 1.9359 1.5802 5.302 4.5521 10.7169 9.967 0.6293 0.6293 1.2255 1.2309 1.7904 1.8058l4.4685 -4.4685c0.8613 -0.8614 2.0797 -1.5729 3.435 -1.808 0.0005 -0.2071 0.0008 -0.4163 0.0008 -0.6276 0 -5.9026 -0.2062 -10.16836 -0.4186 -12.99738 -0.2476 -3.29634 -2.7877 -5.83644 -6.084 -6.084C30.1684 0.706156 25.9026 0.500002 20 0.5 14.0974 0.5 9.83164 0.706159 7.00262 0.918618 3.70628 1.16617 1.16617 3.70627 0.918618 7.00262 0.706158 9.83164 0.5 14.0974 0.5 20s0.206156 10.1684 0.418616 12.9974c0.247554 3.2963 2.787654 5.8364 6.084004 6.084ZM29 7.5c-1.933 0 -3.5 1.567 -3.5 3.5s1.567 3.5 3.5 3.5 3.5 -1.567 3.5 -3.5 -1.567 -3.5 -3.5 -3.5Zm17.4434 25.3142c0.9692 -0.9692 1.3494 -2.3778 0.631 -3.5451 -0.4997 -0.8118 -1.2552 -1.8267 -2.3861 -2.9577 -1.131 -1.131 -2.1459 -1.8864 -2.9577 -2.3861 -1.1673 -0.7184 -2.5759 -0.3382 -3.5451 0.631l-2.1173 2.1173c0.0441 0.0231 0.0888 0.0467 0.1341 0.0711 1.178 0.632 2.7665 1.7045 4.5574 3.4954 1.791 1.7909 2.8634 3.3794 3.4955 4.5574 0.0243 0.0453 0.0479 0.0899 0.0709 0.1339l2.1173 -2.1172Zm-11.6595 -3.4261c-0.4205 -0.2256 -0.7524 -0.3679 -0.977 -0.4532l-8.739 8.739c-0.5439 0.5439 -0.9156 1.2333 -0.9798 1.9998 -0.0871 1.0415 -0.1513 2.8106 0.017 5.4279 0.0619 0.9635 0.8295 1.7311 1.793 1.793 2.6173 0.1683 4.3864 0.1041 5.4278 0.017 0.7665 -0.0642 1.4559 -0.4359 1.9998 -0.9799l8.7391 -8.739c-0.0853 -0.2246 -0.2276 -0.5564 -0.4531 -0.9767 -0.4929 -0.9187 -1.3892 -2.2705 -2.9733 -3.8546 -1.584 -1.584 -2.9359 -2.4803 -3.8545 -2.9733Z" clip-rule="evenodd" stroke-width="1"></path>
  </g>
</svg>