<svg xmlns="http://www.w3.org/2000/svg" fill="none" viewBox="0 0 48 48">
  <g id="ent-ear-nose-throat--health-ent-ear-nose-throat-mouth">
    <path id="Subtract" fill="currentColor" fill-rule="evenodd" d="M21.375 1.45703C10.9527 1.45703 2.5 9.87 2.5 20.2525c0 6.9484 3.78997 13.541 9.45 16.8104v6.4526c0 1.0722 0.6963 2.0522 1.8002 2.2721 1.1879 0.2366 3.1088 0.5221 5.7942 0.6276l2.4809 -15.5936c0.5793 -3.6414 3.7196 -6.3216 7.4068 -6.3216H36c0.8284 0 1.5 0.6716 1.5 1.5s-0.6716 1.5 -1.5 1.5h-6.5679c-2.2123 0 -4.0965 1.6081 -4.4441 3.7929l-0.1097 0.6895h7.4381c0.8284 0 1.5 0.6716 1.5 1.5s-0.6716 1.5 -1.5 1.5h-7.9153l-1.8247 11.4684c3.3897 -0.0497 5.748 -0.3893 7.1234 -0.6632 1.1039 -0.2199 1.8002 -1.1999 1.8002 -2.2721v-2.982l3.9717 0.5674c1.6321 0.2332 3.1465 -0.8944 3.391 -2.5248l1.0835 -7.2232c1.1562 -0.3281 2.428 -0.7948 3.4243 -1.185 1.3095 -0.513 2.1295 -1.7842 2.1295 -3.1708 0 -0.786 -0.2646 -1.5491 -0.7511 -2.1664l-4.5263 -5.7427C40.1187 9.3954 31.3739 1.45703 21.375 1.45703Z" clip-rule="evenodd" stroke-width="1"></path>
  </g>
</svg>