<svg xmlns="http://www.w3.org/2000/svg" fill="none" viewBox="0 0 48 48">
  <g id="health-check-stats-troubleshoot--health-check-stats-troubleshoot-wave-status">
    <path id="Union" fill="currentColor" fill-rule="evenodd" d="M21.8748 1.5c-9.7616 0 -17.91959 6.86788 -19.91043 16.0371h5.18777C9.06859 11.1522 14.991 6.5 22 6.5c8.5604 0 15.5 6.9396 15.5 15.5S30.5604 37.5 22 37.5c-6.639 0 -12.3032 -4.174 -14.51135 -10.041H2.27127C4.69504 36.007 12.5539 42.2688 21.8748 42.2688c3.9807 0 7.6962 -1.1427 10.8348 -3.1181 0.2457 0.2956 0.4899 0.5904 0.7339 0.885l0.002 0.0024 0.0064 0.0077 0.0001 0.0001c1.3543 1.6351 2.6986 3.2581 4.1831 4.8612 1.7823 1.9247 4.5548 2.1904 6.4868 0.3199 0.1771 -0.1715 0.3628 -0.3542 0.5573 -0.5489 0.1946 -0.1947 0.3772 -0.3805 0.5485 -0.5578 1.869 -1.9331 1.6037 -4.7069 -0.3196 -6.4904 -1.602 -1.4856 -3.224 -2.8309 -4.858 -4.1863l-0.0049 -0.0041 -0.0011 -0.0009 -0.0052 -0.0043c-0.2957 -0.2452 -0.5918 -0.4908 -0.8885 -0.7379 1.9638 -3.1342 3.0991 -6.8412 3.0991 -10.812C42.2495 10.6266 33.1277 1.5 21.8748 1.5Zm-7.6999 12.1767c0.2826 -0.8149 1.0559 -1.3568 1.9183 -1.3445 0.8624 0.0124 1.6198 0.5763 1.8789 1.399l2.5851 8.2068 2.0721 -4.8072c0.3056 -0.709 0.9921 -1.1788 1.7637 -1.207 0.7716 -0.0281 1.4904 0.3904 1.847 1.0752l1.7664 3.3933h4.8765c1.1046 0 2 0.8954 2 2 0 1.1045 -0.8954 2 -2 2h-6.0902c-0.7458 0 -1.4296 -0.415 -1.774 -1.0765l-0.3827 -0.7352 -2.5341 5.8791c-0.3308 0.7675 -1.1039 1.2483 -1.9384 1.2058 -0.8346 -0.0425 -1.5548 -0.5995 -1.8059 -1.3965l-2.3843 -7.5697 -0.8144 2.3483c-0.2792 0.8049 -1.0376 1.3447 -1.8896 1.3447H2.20245c-1.10457 0 -1.999996 -0.8955 -1.999996 -2 0 -1.1046 0.895426 -2 1.999996 -2H11.846l2.3289 -6.7156Z" clip-rule="evenodd" stroke-width="1"></path>
  </g>
</svg>