<svg xmlns="http://www.w3.org/2000/svg" fill="none" viewBox="0 0 48 48" id="Heart-Rate-Pulse-Graph--Streamline-Plump">
  <desc>
    Heart Rate Pulse Graph Streamline Icon: https://streamlinehq.com
  </desc>
  <g id="Solid/Health/Medical Monitoring/heart-rate-pulse-graph">
    <path id="Subtract" fill="currentColor" fill-rule="evenodd" d="M0.48 18.1061c0 -7.1535 5.6614 -14.211 14.2044 -14.211 3.3074 0 5.9069 1.0985 7.6709 2.1904 0.6651 0.4116 1.215 0.8244 1.6447 1.1816 0.4297 -0.3572 0.9796 -0.77 1.6447 -1.1816 1.764 -1.0919 4.3635 -2.1904 7.6709 -2.1904l0.018 0.0001c8.3153 0.0997 14.1864 7.0252 14.1864 14.2109 0 5.7955 -2.6818 10.7137 -6.46 14.8148 -3.7691 4.0912 -8.7141 7.4656 -13.4692 10.2192 -2.2214 1.2864 -4.9602 1.2864 -7.1815 0 -4.7552 -2.7536 -9.7002 -6.128 -13.4693 -10.2192C3.1618 28.8198 0.48 23.9016 0.48 18.1061Zm31.3543 -3.5142c-0.3301 -0.7426 -1.0764 -1.212 -1.8886 -1.1878 -0.8124 0.0241 -1.5295 0.5371 -1.8149 1.298L23.888 26.0164l-3.5492 -8.3889c-0.2953 -0.6979 -0.9593 -1.1693 -1.7157 -1.2177 -0.7562 -0.0484 -1.4749 0.3344 -1.8569 0.9891l-2.9235 5.012H8.9872c-1.1055 0 -2.0017 0.8961 -2.0017 2.0017s0.8962 2.0017 2.0017 2.0017h6.0051c0.712 0 1.3703 -0.3782 1.7291 -0.9932l1.4883 -2.5514 3.9468 9.3288c0.3192 0.7544 1.066 1.2382 1.885 1.2213 0.819 -0.017 1.5452 -0.5313 1.8328 -1.2985l4.2879 -11.4344 2.0172 4.5387c0.3212 0.7228 1.038 1.1887 1.8291 1.1887h5.0043c1.1055 0 2.0017 -0.8962 2.0017 -2.0017s-0.8962 -2.0017 -2.0017 -2.0017h-3.7035l-3.475 -7.819Z" clip-rule="evenodd" stroke-width="1"></path>
  </g>
</svg>