<svg xmlns="http://www.w3.org/2000/svg" fill="none" viewBox="0 0 48 48">
  <g id="help-intermediate-question-box-placeholder--help-intermediate-question-box-placeholder-scan-faq">
    <path id="Union" fill="currentColor" fill-rule="evenodd" d="M13.0001 3c0 -2 -0.0001 -2 -0.0002 -2h-0.0031l-0.0077 0.00001 -0.0285 0.00004 -0.1078 0.00035c-0.0937 0.00039 -0.2302 0.00116 -0.4037 0.0027 -0.347 0.00309 -0.8428 0.00923 -1.4417 0.0215 -1.1958 0.02449 -2.81221 0.07356 -4.48143 0.17223 -2.87563 0.16999 -5.1692 2.45006 -5.31194 5.34931 -0.08272 1.68029 -0.10709 3.30848 -0.11099 4.51256 -0.00195 0.6033 0.00122 1.1029 0.00491 1.4529 0.00184 0.175 0.00381 0.3128 0.00534 0.4075l0.00189 0.1092 0.00056 0.029 0.00016 0.008 0.00004 0.0022 0.00002 0.0008 0 0.0002c0.00001 0.0001 0.00001 0.0002 1.99956 -0.0419l-1.99955 0.0421c0.02325 1.1043 0.93734 1.9807 2.04166 1.9574 1.10429 -0.0232 1.98065 -0.9372 1.95745 -2.0415l0 -0.0001 -0.00002 -0.0011 -0.00011 -0.0056 -0.00047 -0.0242 -0.00171 -0.099c-0.00141 -0.0878 -0.00328 -0.2181 -0.00504 -0.3852 -0.00353 -0.3343 -0.0066 -0.8153 -0.00471 -1.3977 0.00378 -1.16717 0.02746 -2.73002 0.10618 -4.32888 0.04124 -0.83778 0.69342 -1.50216 1.55281 -1.55296 1.60099 -0.09464 3.16263 -0.14224 4.32729 -0.1661 0.5814 -0.0119 1.0615 -0.01785 1.3953 -0.02081 0.1669 -0.00149 0.297 -0.00222 0.3849 -0.00259l0.0992 -0.00032L12.9932 5l0.0057 0L13 5h0.0002c1.1045 -0.00006 1.9999 -0.89548 1.9999 -2.00002 0 -1.10457 -0.8955 -1.999993 -2 -1.99998l0 2Zm22 0c0 -2 0.0001 -2 0.0001 -2h0.0031l0.0077 0.00001 0.0286 0.00004 0.1078 0.00035c0.0937 0.00039 0.2302 0.00116 0.4037 0.0027 0.347 0.00309 0.8427 0.00923 1.4416 0.0215 1.1959 0.02449 2.8123 0.07356 4.4815 0.17223 2.8759 0.17001 5.1682 2.44998 5.3134 5.34751 0.0841 1.67975 0.1106 3.30752 0.1163 4.51136 0.0028 0.6032 0.0004 1.1027 -0.0027 1.4525 -0.0015 0.175 -0.0033 0.3127 -0.0046 0.4074l-0.0017 0.1091 -0.0005 0.029 -0.0002 0.008 0 0.0022 0 0.0007 0 0.0003c0 0.0001 0 0.0002 -1.9997 -0.0383l1.9997 0.0385c-0.0213 1.1043 -0.9338 1.9824 -2.0381 1.9611 -1.1044 -0.0213 -1.9824 -0.9337 -1.9612 -2.038l0 -0.0001 0 -0.0011 0.0001 -0.0056 0.0005 -0.0243 0.0015 -0.099c0.0013 -0.0878 0.0029 -0.2182 0.0044 -0.3853 0.003 -0.3345 0.0053 -0.8157 0.0025 -1.3982 -0.0055 -1.16742 -0.0312 -2.73076 -0.1113 -4.33019 -0.0421 -0.83933 -0.6954 -1.50376 -1.5545 -1.55455 -1.6009 -0.09464 -3.1626 -0.14224 -4.3273 -0.1661 -0.5813 -0.0119 -1.0614 -0.01785 -1.3952 -0.02081 -0.1669 -0.00149 -0.2971 -0.00222 -0.3849 -0.00259l-0.0992 -0.00032L35.007 5l-0.0057 0 -0.0012 0H35c-1.1046 -0.00006 -2 -0.89548 -1.9999 -2.00002 0 -1.10457 0.8954 -1.999993 2 -1.99998l0 2Zm0.0001 44c-0.0001 0 -0.0001 0 -0.0001 -2l0 2c-1.1046 0 -2 -0.8954 -2 -2 -0.0001 -1.1045 0.8953 -1.9999 1.9998 -2h0.0014l0.0057 0 0.0245 0 0.0992 -0.0004c0.0878 -0.0003 0.218 -0.0011 0.3849 -0.0025 0.3338 -0.003 0.8139 -0.009 1.3952 -0.0209 1.1647 -0.0238 2.7263 -0.0714 4.3273 -0.1661 0.8583 -0.0507 1.5152 -0.7154 1.5598 -1.5596 0.0842 -1.5938 0.1163 -3.1476 0.1272 -4.3065 0.0054 -0.5784 0.0055 -1.0558 0.0042 -1.3876 -0.0006 -0.1658 -0.0015 -0.2951 -0.0023 -0.3822l-0.001 -0.0983 -0.0003 -0.0241 -0.0001 -0.0055 0 -0.0011 0 -0.0002c-0.0151 -1.1044 0.868 -2.012 1.9724 -2.0271 1.1044 -0.0152 2.0121 0.8679 2.0272 1.9724l-1.9998 0.0274c1.9998 -0.0274 1.9998 -0.0274 1.9998 -0.0273l0 0.0003 0.0001 0.0007 0 0.0022 0.0001 0.0078 0.0003 0.0287 0.0011 0.108c0.0009 0.0937 0.0019 0.2301 0.0025 0.4035 0.0013 0.3466 0.0012 0.8416 -0.0044 1.4398 -0.0112 1.1941 -0.0443 2.8095 -0.1325 4.4801 -0.1529 2.8921 -2.4414 5.1716 -5.3182 5.3417 -1.6692 0.0986 -3.2857 0.1477 -4.4815 0.1722 -0.5989 0.0123 -1.0946 0.0184 -1.4416 0.0215 -0.1736 0.0015 -0.31 0.0023 -0.4037 0.0027l-0.1078 0.0003L35.011 47l-0.0077 0 -0.0022 0h-0.0009ZM13 45c-0.0001 2 -0.0001 2 -0.0002 2h-0.0009l-0.0022 0 -0.0077 0 -0.0286 -0.0001 -0.1078 -0.0003c-0.0937 -0.0004 -0.2301 -0.0012 -0.4037 -0.0027 -0.347 -0.0031 -0.8427 -0.0092 -1.4416 -0.0215 -1.19585 -0.0245 -2.81226 -0.0736 -4.48148 -0.1722 -2.8768 -0.1701 -5.16533 -2.4496 -5.31812 -5.3417 -0.08835 -1.6723 -0.1215 -3.2903 -0.13273 -4.4865 -0.00562 -0.5992 -0.00576 -1.0952 -0.00449 -1.4425 0.00064 -0.1737 0.00163 -0.3104 0.00247 -0.4043l0.00109 -0.1082 0.00034 -0.0287 0.0001 -0.0079 0.00003 -0.0022 0.00001 -0.0007 0.00001 -0.0002c0 -0.0001 0 -0.0002 1.99981 0.0271l-1.99981 -0.0273c0.01508 -1.1045 0.92266 -1.9876 2.02712 -1.9725 1.10444 0.0151 1.98753 0.9226 1.97251 2.027l0 0.0001 -0.00002 0.0012 -0.00007 0.0055 -0.00029 0.0242 -0.00099 0.0985c-0.00078 0.0873 -0.00173 0.2169 -0.00234 0.3831 -0.00122 0.3324 -0.00109 0.8108 0.00435 1.3903 0.0109 1.1611 0.04303 2.7174 0.12733 4.313 0.0446 0.8442 0.70151 1.5089 1.55973 1.5596 1.601 0.0947 3.16263 0.1423 4.32734 0.1661 0.5813 0.0119 1.0614 0.0179 1.3952 0.0209 0.1669 0.0014 0.2971 0.0022 0.3849 0.0025l0.0993 0.0004 0.0244 0 0.0057 0h0.0014c1.1045 0.0001 1.9999 0.8955 1.9999 2 -0.0001 1.1046 -0.8955 2 -2.0001 2L13 45Zm12.482 -9.4346c0 1.9692 -1.5963 3.5655 -3.5654 3.5655 -1.9691 0 -3.5654 -1.5963 -3.5654 -3.5655 0 -1.9691 1.5963 -3.5654 3.5654 -3.5654 1.9691 0 3.5654 1.5963 3.5654 3.5654Zm-9.8492 -20.2918c0.3434 -1.3707 1.4473 -2.8362 3.2197 -3.9839 1.7523 -1.1349 4.0453 -1.87857 6.5435 -1.87857 3.0407 0 5.058 1.07097 6.3359 2.54357 1.3097 1.5093 1.9666 3.5868 1.9666 5.759 0 2.2327 -0.8073 3.7868 -2.2091 5.1478 -1.4841 1.4409 -3.6 2.6352 -6.2365 4.0504 -0.516 0.277 -0.8379 0.8152 -0.8379 1.4008v0.8826c0 0.5854 -0.4745 1.0599 -1.0599 1.0599h-3.3266c-0.5859 0 -1.0607 -0.4755 -1.0598 -1.0614l0.0056 -4.0372c0 -0.9336 0.7078 -1.981 2.2884 -3.1596 1.2022 -0.8965 2.5967 -1.6466 3.8832 -2.3387l0.0005 -0.0002c0.3497 -0.1882 0.6915 -0.372 1.0192 -0.5533 0.7584 -0.4196 1.041 -1.3693 0.6353 -2.1352 -0.4057 -0.766 -1.3501 -1.0658 -2.1233 -0.6742 -1.6426 0.832 -3.7253 2.0504 -4.8582 2.7252 -0.492 0.293 -0.8512 0.429 -1.1458 0.4524 -1.2118 0.0962 -2.066 -0.3646 -2.5765 -1.0486 -0.5295 -0.7094 -0.7989 -1.815 -0.4643 -3.1508Z" clip-rule="evenodd" stroke-width="1"></path>
  </g>
</svg>