<svg xmlns="http://www.w3.org/2000/svg" fill="none" viewBox="0 0 48 48" id="Home-3--Streamline-Plump">
  <desc>
    Home 3 Streamline Icon: https://streamlinehq.com
  </desc>
  <g id="Solid/Interface Essential/Home/home-3--home-house-roof-shelter">
    <path id="Subtract" fill="currentColor" fill-rule="evenodd" d="M20.5682 2.81246c2.1784 -0.99734 4.6852 -0.99734 6.8636 0 7.7657 3.5554 13.5513 8.64154 16.3373 11.38514 1.5022 1.4793 2.3049 3.4519 2.4175 5.4865 0.1388 2.5072 0.3134 6.5725 0.3134 11.1586 0 3.2363 -0.087 6.2126 -0.1868 8.5643 -0.1601 3.7688 -3.1695 6.7252 -6.9275 6.8541 -3.4773 0.1192 -8.6464 0.2389 -15.3857 0.2389s-11.9084 -0.1197 -15.38569 -0.2389c-3.75796 -0.1289 -6.76743 -3.0853 -6.92748 -6.8541C1.58696 37.0553 1.5 34.079 1.5 30.8427c0 -4.5861 0.17463 -8.6514 0.31339 -11.1586 0.1126 -2.0346 0.91528 -4.0072 2.41753 -5.4865C7.01693 11.454 12.8025 6.36786 20.5682 2.81246Zm8.5111 39.16394C30.1434 41.9664 31 41.1012 31 40.037c0 -2.4013 -0.0464 -6.3406 -0.0841 -9.1397 -0.0257 -1.9099 -1.403 -3.5328 -3.3046 -3.7136C26.5288 27.0809 25.2731 27 24 27s-2.5288 0.0809 -3.6113 0.1837c-1.9016 0.1808 -3.2789 1.8037 -3.3046 3.7136C17.0464 33.6964 17 37.6357 17 40.037c0 1.0642 0.8566 1.9294 1.9207 1.9394C20.4988 41.9914 22.1926 42 24 42s3.5012 -0.0086 5.0793 -0.0236Z" clip-rule="evenodd" stroke-width="1"></path>
  </g>
</svg>