<svg xmlns="http://www.w3.org/2000/svg" fill="none" viewBox="0 0 48 48" id="Location-Home--Streamline-Plump">
  <desc>
    Location Home Streamline Icon: https://streamlinehq.com
  </desc>
  <g id="location-home--travel-places-location-home">
    <path id="Union" fill="currentColor" fill-rule="evenodd" d="M22.9976 1.18642c-1.2761 -0.540227 -2.7191 -0.540227 -3.9952 0C11.533 4.34842 5.92649 9.1897 3.19459 11.8519 1.67991 13.328 0.879707 15.3032 0.770065 17.3381 0.646954 19.623 0.5 23.1876 0.5 27.1911c0 3.536 0.114643 6.7294 0.226189 9.0007 0.135788 2.7647 2.341681 4.9389 5.102661 5.0464 3.09595 0.1206 8.20755 0.2619 15.17115 0.2619 1.2517 0 2.4436 -0.0046 3.5747 -0.0128 -1.6901 -2.5084 -3.0747 -5.6975 -3.0747 -9.4408C21.5 24.0329 27.9717 17.5 36 17.5c1.8678 0 3.6513 0.3536 5.2886 0.9972 -0.0197 -0.4154 -0.0395 -0.8028 -0.0587 -1.1591 -0.1096 -2.0349 -0.9098 -4.0101 -2.4245 -5.4862 -2.7319 -2.6622 -8.3384 -7.50348 -15.8078 -10.66548ZM13.9858 37.9492c1.0931 0.0164 1.9936 -0.8525 2.0046 -1.9457C15.9965 35.4024 16 34.7366 16 34c0 -2.3004 -0.034 -3.9103 -0.0749 -5.015 -0.0523 -1.4145 -0.8089 -2.6396 -2.2096 -2.843 -0.581 -0.0843 -1.3094 -0.142 -2.2155 -0.142 -0.9061 0 -1.63454 0.0577 -2.21545 0.142 -1.40077 0.2034 -2.15734 1.4285 -2.20969 2.843C7.03397 30.0897 7 31.6996 7 34c0 0.6923 0.00308 1.322 0.00849 1.8943 0.01003 1.0597 0.85681 1.9165 1.91611 1.9466 1.4524 0.0412 3.1417 0.0796 5.0612 0.1083ZM36 20.5c-6.3578 0 -11.5 5.1761 -11.5 11.5465 0 3.8857 1.8766 7.153 3.9492 9.5849 2.0797 2.4403 4.4718 4.1773 5.7801 5.0361 1.0798 0.7088 2.4616 0.7088 3.5414 0 1.3083 -0.8588 3.7004 -2.5958 5.7801 -5.0361 2.0726 -2.4319 3.9492 -5.6992 3.9492 -9.5849C47.5 25.6761 42.3578 20.5 36 20.5ZM40 32c0 2.2091 -1.7909 4 -4 4 -2.2091 0 -4 -1.7909 -4 -4 0 -2.2091 1.7909 -4 4 -4 2.2091 0 4 1.7909 4 4Z" clip-rule="evenodd" stroke-width="1"></path>
  </g>
</svg>