<svg xmlns="http://www.w3.org/2000/svg" fill="none" viewBox="0 0 48 48" id="Medicines--Streamline-Plump">
  <desc>
    Medicines Streamline Icon: https://streamlinehq.com
  </desc>
  <g id="Solid/Health/Medical/medicines--health-medical-hospital-medicine-capsule-pill">
    <path id="Union" fill="currentColor" fill-rule="evenodd" d="M13.0008 0.5C6.60485 0.5 1.33088 5.30366 0.589844 11.5H25.4117c-0.741 -6.19634 -6.015 -11 -12.4109 -11Zm0 25c-6.39595 0 -11.66992 -4.8037 -12.410956 -11H25.4117c-0.741 6.1963 -6.015 11 -12.4109 11Zm31.6489 -6.1492c-1.9485 -1.9484 -4.3338 -2.9018 -6.7811 -2.8487 -2.4305 0.0527 -4.8002 1.0936 -6.7736 2.9085 -1.3499 1.2416 -2.9678 2.7801 -4.8891 4.6798l13.7042 13.7042c1.8997 -1.9213 3.4382 -3.5392 4.6798 -4.8891 1.8149 -1.9734 2.8558 -4.3431 2.9085 -6.7736 0.0531 -2.4473 -0.9003 -4.8326 -2.8487 -6.7811ZM19.4106 31.095c1.2404 -1.3486 2.777 -2.9645 4.674 -4.8832l13.7041 13.7041c-1.9187 1.8971 -3.5346 3.4336 -4.8832 4.674 -1.9734 1.8149 -4.3431 2.8558 -6.7736 2.9085 -2.4473 0.0531 -4.8326 -0.9003 -6.7811 -2.8487 -1.9484 -1.9485 -2.9018 -4.3338 -2.8487 -6.781 0.0527 -2.4306 1.0936 -4.8003 2.9085 -6.7737Z" clip-rule="evenodd" stroke-width="1"></path>
  </g>
</svg>