<svg xmlns="http://www.w3.org/2000/svg" fill="none" viewBox="0 0 48 48" id="Medical-Files-Report-History--Streamline-Plump">
  <desc>
    Medical Files Report History Streamline Icon: https://streamlinehq.com
  </desc>
  <g id="Solid/Health/Health Files/medical-files-report-history">
    <path id="Subtract" fill="currentColor" fill-rule="evenodd" d="M27.1366 0.52331c0.1209 0.001825 0.2427 0.006554 0.3653 0.01447 0.0243 3.50166 0.2788 7.17495 0.5246 9.95532 0.3057 3.4583 3.0224 6.1749 6.4807 6.4806 2.7711 0.2449 6.4293 0.4985 9.9205 0.5242 0.0049 0.0888 0.0083 0.1773 0.0101 0.2653C44.477 19.643 44.5 21.7185 44.5 24c0 8.0065 -0.2836 13.476 -0.5518 16.8578 -0.2605 3.2856 -2.7873 5.8344 -6.0739 6.1159 -3.0401 0.2604 -7.6649 0.5263 -13.8743 0.5263s-10.8342 -0.2659 -13.8743 -0.5263c-3.28661 -0.2815 -5.81343 -2.8303 -6.07393 -6.1159C3.78365 37.476 3.5 32.0065 3.5 24s0.28365 -13.476 0.55177 -16.85779c0.2605 -3.28565 2.78732 -5.83445 6.07393 -6.11593C13.1658 0.765905 17.7906 0.5 24 0.5c1.0948 0 2.1403 0.008266 3.1366 0.02331Zm10.9241 6.41603c2.853 2.85308 4.5638 5.70956 5.4794 7.54686 -3.0967 -0.057 -6.278 -0.2807 -8.7687 -0.5009 -2.0102 -0.1776 -3.5789 -1.7463 -3.7565 -3.7564 -0.2202 -2.49078 -0.444 -5.67216 -0.501 -8.76892 1.8378 0.91589 4.6941 2.62666 7.5468 5.47936ZM20.1377 38.3125c0.0504 1.0738 0.7466 1.9617 1.8148 2.0824 0.5384 0.0609 1.2157 0.1051 2.0475 0.1051 0.8318 0 1.5091 -0.0442 2.0475 -0.1051 1.0682 -0.1207 1.7644 -1.0086 1.8148 -2.0824 0.0407 -0.8667 0.0829 -2.11 0.1096 -3.8406 1.7306 -0.0267 2.9739 -0.0689 3.8406 -0.1096 1.0738 -0.0504 1.9617 -0.7466 2.0824 -1.8148 0.0609 -0.5384 0.1051 -1.2157 0.1051 -2.0475 0 -0.8318 -0.0442 -1.5091 -0.1051 -2.0475 -0.1207 -1.0682 -1.0086 -1.7644 -2.0824 -1.8148 -0.8667 -0.0407 -2.11 -0.0829 -3.8406 -0.1096 -0.0267 -1.7306 -0.0689 -2.9739 -0.1096 -3.8406 -0.0504 -1.0738 -0.7466 -1.9617 -1.8148 -2.0824C25.5091 20.5442 24.8318 20.5 24 20.5c-0.8318 0 -1.5091 0.0442 -2.0475 0.1051 -1.0682 0.1207 -1.7644 1.0086 -1.8148 2.0824 -0.0407 0.8667 -0.0829 2.11 -0.1096 3.8406 -1.7306 0.0267 -2.9739 0.0689 -3.8406 0.1096 -1.0738 0.0504 -1.9617 0.7466 -2.0824 1.8148C14.0442 28.9909 14 29.6682 14 30.5c0 0.8318 0.0442 1.5091 0.1051 2.0475 0.1207 1.0682 1.0086 1.7644 2.0824 1.8148 0.8667 0.0407 2.11 0.0829 3.8406 0.1096 0.0267 1.7306 0.0689 2.9739 0.1096 3.8406Z" clip-rule="evenodd" stroke-width="1"></path>
  </g>
</svg>