<svg xmlns="http://www.w3.org/2000/svg" fill="none" viewBox="0 0 48 48" id="Navigation-Arrow-North--Streamline-Plump">
  <desc>
    Navigation Arrow North Streamline Icon: https://streamlinehq.com
  </desc>
  <g id="navigation-arrow-north--compass-map-bearing-navigation-maps-heading-gps-up">
    <path id="Subtract" fill="currentColor" fill-rule="evenodd" d="M22.4791 1.1552c-0.4082 0.2048 -0.7839 0.4973 -1.0993 0.8772 -4.7005 5.6612 -9.4095 13.7067 -13.1732 21.38C4.4497 31.0721 1.5563 38.522 0.5595 43.0215c-0.2692 1.215 0.1643 2.3505 1.0142 3.0644 0.8264 0.694 1.97 0.9336 3.0713 0.6291l17.8341 -4.9298v-40.63Zm3.042 40.6301L43.355 46.715c1.1013 0.3045 2.245 0.0649 3.0713 -0.6291 0.8499 -0.7139 1.2834 -1.8495 1.0142 -3.0644 -0.9968 -4.4996 -3.8902 -11.9494 -7.6472 -19.6091 -3.7635 -7.6733 -8.4727 -15.7188 -13.1731 -21.38 -0.3154 -0.3799 -0.6911 -0.6723 -1.0991 -0.8772v40.6301Z" clip-rule="evenodd" stroke-width="1"></path>
  </g>
</svg>