<svg xmlns="http://www.w3.org/2000/svg" fill="none" viewBox="0 0 48 48" id="No-Poverty--Streamline-Plump">
  <desc>
    No Poverty Streamline Icon: https://streamlinehq.com
  </desc>
  <g id="no-poverty">
    <path id="Union" fill="currentColor" fill-rule="evenodd" d="M14 13.5c-3.3137 0 -6 -2.6863 -6 -6 0 -3.31371 2.6863 -6 6 -6s6 2.68629 6 6c0 3.3137 -2.6863 6 -6 6Zm20 0c3.3137 0 6 -2.6863 6 -6 0 -3.31371 -2.6863 -6 -6 -6s-6 2.68629 -6 6c0 3.3137 2.6863 6 6 6Zm-16.056 9.4644C16.4327 21.43 15.5001 19.3239 15.5001 17c0 -0.501 0.0433 -0.9918 0.1264 -1.469 -2.3562 0.0307 -4.4546 0.0918 -6.76346 0.2137 -2.68665 0.1419 -4.88493 2.1443 -5.36209 4.8744 -0.39499 2.2599 -0.81609 5.2442 -0.99408 8.4434 -0.11192 2.0116 1.17788 3.847 3.19165 4.0925 0.43116 0.0526 0.90729 0.0996 1.42674 0.136l0.77286 9.2602c0.16174 1.9378 1.50695 3.6313 3.47338 3.8207 0.7747 0.0747 1.683 0.1283 2.6939 0.1283 1.0418 0 1.9747 -0.057 2.7647 -0.1352 0.4077 -0.0403 0.7922 -0.1471 1.1462 -0.3093 -0.4906 -0.7723 -0.7799 -1.667 -0.8357 -2.5738l-0.199 -3.2332c-2.6423 -0.5115 -4.4693 -2.9551 -4.2059 -5.6766 0.2422 -2.5025 0.5627 -4.6942 0.8446 -6.3595 0.4146 -2.4492 2.0833 -4.4466 4.3637 -5.2482Zm12.0801 23.0914c0.3539 0.1622 0.7383 0.2689 1.1459 0.3092 0.7899 0.0782 1.7228 0.1352 2.7647 0.1352 1.0109 0 1.9192 -0.0536 2.6939 -0.1283 1.9664 -0.1894 3.3116 -1.8829 3.4734 -3.8207l0.7728 -9.2602c0.5195 -0.0364 0.9956 -0.0834 1.4268 -0.136 2.0137 -0.2455 3.3035 -2.0809 3.1916 -4.0925 -0.178 -3.1992 -0.5991 -6.1835 -0.9941 -8.4434 -0.4771 -2.7301 -2.6754 -4.7325 -5.3621 -4.8744 -2.3088 -0.1219 -4.4072 -0.183 -6.7634 -0.2137 0.0831 0.4772 0.1265 0.968 0.1265 1.469 0 2.3238 -0.9326 4.4299 -2.4439 5.9643 2.2807 0.8015 3.9497 2.799 4.3643 5.2484 0.2819 1.6654 0.6024 3.8569 0.8446 6.3594 0.2634 2.7215 -1.5637 5.1652 -4.2062 5.6766l-0.199 3.2332c-0.0558 0.9069 -0.3452 1.8016 -0.8358 2.5739ZM18 17c0 3.3137 2.6863 6 6 6s6 -2.6863 6 -6 -2.6863 -6 -6 -6 -6 2.6863 -6 6Zm10.0342 8.0914c2.0043 0.0995 3.5864 1.56 3.9213 3.5386 0.2739 1.6184 0.5858 3.7501 0.8212 6.1829 0.1524 1.5743 -0.999 2.94 -2.5783 3.029 -0.4467 0.0252 -0.9469 0.0496 -1.5006 0.0713l-0.3332 5.4151c-0.0797 1.2954 -0.9859 2.3958 -2.275 2.546 -0.6192 0.0721 -1.3337 0.1257 -2.0894 0.1257 -0.7557 0 -1.4702 -0.0536 -2.0894 -0.1257 -1.2891 -0.1502 -2.1953 -1.2506 -2.275 -2.546l-0.3333 -5.4151c-0.5535 -0.0217 -1.0536 -0.0461 -1.5003 -0.0713 -1.5792 -0.089 -2.7306 -1.4546 -2.5782 -3.029 0.2354 -2.4328 0.5473 -4.5647 0.8212 -6.1831 0.3349 -1.9785 1.9169 -3.4389 3.9211 -3.5384C21.0284 25.0387 22.3647 25 24 25c1.6355 0 2.972 0.0387 4.0342 0.0914Z" clip-rule="evenodd" stroke-width="1"></path>
  </g>
</svg>