<svg xmlns="http://www.w3.org/2000/svg" fill="none" viewBox="0 0 48 48" id="Nurse-Hat--Streamline-Plump">
  <desc>
    Nurse Hat Streamline Icon: https://streamlinehq.com
  </desc>
  <g id="Solid/Health/Medical Personnel/nurse-hat--health-medical-hospital-nurse-doctor-cap">
    <path id="Union" fill="currentColor" fill-rule="evenodd" d="M38.6148 7.50995c0.605 1.40699 1.4925 3.62495 2.2666 6.18305C36.882 12.5278 31.2863 11.5 23.998 11.5c-7.2855 0 -12.8798 1.027 -16.87886 2.1916 0.77398 -2.5575 1.66136 -4.7749 2.26624 -6.18165 0.60678 -1.4112 1.77212 -2.66047 3.47732 -3.06696C14.7412 3.99518 18.1374 3.5 24.0001 3.5c5.8627 0 9.2588 0.49518 11.1374 0.94299 1.7052 0.40649 2.8705 1.65577 3.4773 3.06696Zm6.1226 10.78115c1.8161 0.8315 2.8275 2.6859 2.655 4.6232 -0.5424 6.092 -3.0534 13.2239 -4.5812 17.1249 -0.954 2.4359 -3.1887 4.0793 -5.8218 4.2129 -2.4591 0.1248 -6.5223 0.2479 -12.9907 0.2479s-10.5317 -0.1231 -12.9907 -0.2479c-2.63314 -0.1336 -4.8678 -1.777 -5.82181 -4.2129 -1.52782 -3.901 -4.03885 -11.0329 -4.581257 -17.1249 -0.172482 -1.9373 0.838967 -3.7917 2.655007 -4.6232C6.4298 16.8399 13.2171 14.5 23.9987 14.5s17.5689 2.3399 20.7387 3.7911Zm-17.8086 5.4072c-0.0322 -1.1175 -0.7375 -2.0692 -1.852 -2.1578C24.7632 21.5156 24.405 21.5 24 21.5s-0.7632 0.0156 -1.0768 0.0405c-1.1145 0.0886 -1.8198 1.0403 -1.852 2.1578 -0.0205 0.7131 -0.041 1.6465 -0.0547 2.8182 -1.1717 0.0137 -2.1051 0.0342 -2.8182 0.0547 -1.1175 0.0322 -2.0692 0.7375 -2.1578 1.852C16.0156 28.7368 16 29.095 16 29.5s0.0156 0.7632 0.0405 1.0768c0.0886 1.1145 1.0403 1.8198 2.1578 1.852 0.7131 0.0205 1.6465 0.041 2.8182 0.0547 0.0137 1.1717 0.0342 2.1051 0.0547 2.8182 0.0322 1.1175 0.7375 2.0692 1.852 2.1578 0.3136 0.0249 0.6718 0.0405 1.0768 0.0405s0.7632 -0.0156 1.0768 -0.0405c1.1145 -0.0886 1.8198 -1.0403 1.852 -2.1578 0.0205 -0.7131 0.041 -1.6465 0.0547 -2.8182 1.1717 -0.0137 2.1051 -0.0342 2.8182 -0.0547 1.1175 -0.0322 2.0692 -0.7375 2.1578 -1.852 0.0249 -0.3136 0.0405 -0.6718 0.0405 -1.0768s-0.0156 -0.7632 -0.0405 -1.0768c-0.0886 -1.1145 -1.0403 -1.8198 -2.1578 -1.852 -0.7131 -0.0205 -1.6465 -0.041 -2.8182 -0.0547 -0.0137 -1.1717 -0.0342 -2.1051 -0.0547 -2.8182Z" clip-rule="evenodd" stroke-width="1"></path>
  </g>
</svg>