<svg xmlns="http://www.w3.org/2000/svg" fill="none" viewBox="0 0 48 48" id="Stethoscope--Streamline-Plump">
  <desc>
    Stethoscope Streamline Icon: https://streamlinehq.com
  </desc>
  <g id="Solid/Health/Medical/stethoscope--instrument-health-medical-stethoscope">
    <path id="Union" fill="currentColor" fill-rule="evenodd" d="M22 5c0.4303 0 0.8364 0.02415 1.2141 0.0643C24.1037 5.15884 25 6.05625 25 7.7057L25 15c0 0.4955 -0.0022 0.9731 -0.0064 1.4328 -0.0442 4.8914 -3.6694 8.5166 -8.5608 8.5608C15.973 24.9978 15.4955 25 15 25c-0.4955 0 -0.9731 -0.0022 -1.4328 -0.0064 -4.89137 -0.0442 -8.51663 -3.6694 -8.56082 -8.5608C5.00222 15.9731 5 15.4955 5 15l0 -7.2943c0 -1.64945 0.89628 -2.54686 1.78588 -2.6414C7.1636 5.02415 7.5697 5 8 5c1.10457 0 2 -0.89543 2 -2s-0.89543 -2 -2 -2c-0.57991 0 -1.12732 0.03254 -1.63687 0.0867C2.73292 1.47252 1 4.80988 1 7.7057V15c0 0.5075 0.00227 0.997 0.00654 1.469C1.06883 23.3631 6.19081 28.6571 13 28.9786V32.5C13 40.5081 19.4919 47 27.5 47 35.508 47 42 40.5087 42 32.5005v-18.314c2.6113 -0.8436 4.5 -3.2945 4.5 -6.1865 0 -3.58985 -2.9101 -6.5 -6.5 -6.5S33.5 4.41015 33.5 8c0 2.892 1.8887 5.3429 4.5 6.1865v18.314C38 38.2994 33.2991 43 27.5 43 21.701 43 17 38.299 17 32.5v-3.5214c6.8092 -0.3215 11.9312 -5.6155 11.9935 -12.5096 0.0042 -0.472 0.0065 -0.9615 0.0065 -1.469l0 -7.2943c0 -2.89582 -1.7329 -6.23318 -5.3631 -6.619C23.1273 1.03254 22.5799 1 22 1c-1.1046 0 -2 0.89543 -2 2s0.8954 2 2 2Z" clip-rule="evenodd" stroke-width="1"></path>
  </g>
</svg>