<svg xmlns="http://www.w3.org/2000/svg" fill="none" viewBox="0 0 48 48" id="User-Edit-Pencil--Streamline-Plump">
  <desc>
    User Edit Pencil Streamline Icon: https://streamlinehq.com
  </desc>
  <g id="user-edit-pencil--actions-close-edit-geometric-human-pencil-person-single-up-user-write">
    <path id="Union" fill="currentColor" fill-rule="evenodd" d="M16.9999 1.00098c-6.6275 0 -12.00004 5.37258 -12.00004 12.00002 0 3.9457 1.90453 7.4454 4.84169 9.6318 -4.48824 2.1712 -7.80848 6.3223 -8.75757 11.304 -0.209342 1.0988 -0.00065 2.1647 0.60389 3.0047 0.60519 0.8409 1.55058 1.3766 2.66436 1.5193 2.18073 0.2793 5.99267 0.5402 12.65147 0.5402 1.1297 0 2.1774 -0.0075 3.1492 -0.0214 0.2256 -1.4016 0.9357 -2.5683 1.7937 -3.4264l8.0976 -8.0976c-1.5333 -2.0355 -3.5505 -3.6976 -5.883 -4.825 2.9354 -2.1866 4.8387 -5.6852 4.8387 -9.6296 0 -6.62744 -5.3726 -12.00002 -12 -12.00002ZM46.0744 29.2691c0.7184 1.1673 0.3382 2.5759 -0.631 3.5451l-2.1174 2.1173c-0.0229 -0.044 -0.0466 -0.0886 -0.0709 -0.1339 -0.632 -1.178 -1.7045 -2.7665 -3.4954 -4.5574 -1.7909 -1.7909 -3.3794 -2.8634 -4.5574 -3.4955 -0.0453 -0.0242 -0.0899 -0.0479 -0.1339 -0.0709l2.1171 -2.1175c0.9692 -0.9692 2.3778 -1.3494 3.5451 -0.631 0.8118 0.4997 1.8267 1.2551 2.9577 2.3861 1.131 1.131 1.8864 2.1459 2.3861 2.9577Zm-13.2669 -0.3345c0.2245 0.0853 0.556 0.2283 0.9763 0.4539 0.9187 0.4929 2.2705 1.3892 3.8546 2.9733 1.584 1.584 2.4803 2.9359 2.9732 3.8545 0.2256 0.4203 0.3678 0.7521 0.4532 0.9767l-8.7391 8.739c-0.5439 0.5439 -1.2333 0.9156 -1.9998 0.9798 -1.0414 0.0872 -2.8105 0.1513 -5.4278 -0.0169 -0.9635 -0.062 -1.7311 -0.8296 -1.793 -1.7931 -0.1683 -2.6173 -0.1041 -4.3864 -0.017 -5.4278 0.0642 -0.7666 0.4359 -1.4559 0.9798 -1.9998l8.7396 -8.7396Z" clip-rule="evenodd" stroke-width="1"></path>
  </g>
</svg>