<svg xmlns="http://www.w3.org/2000/svg" fill="none" viewBox="0 0 48 48" id="Waiting-Appointments-Calendar--Streamline-Plump">
  <desc>
    Waiting Appointments Calendar Streamline Icon: https://streamlinehq.com
  </desc>
  <g id="Solid/Health/Health Appointment/waiting-appointments-calendar">
    <path id="Subtract" fill="currentColor" fill-rule="evenodd" d="M37.805 5.9399c-0.002 -0.9182 -0.0213 -1.7277 -0.0461 -2.4012 -0.0575 -1.558 -1.0597 -2.9246 -2.7374 -3.0232C34.6448 0.4934 34.2118 0.48 33.7148 0.48s-0.9301 0.0134 -1.3067 0.0355c-1.6777 0.0986 -2.68 1.4652 -2.7374 3.0232 -0.0222 0.6001 -0.0398 1.3083 -0.0449 2.105 -1.7152 -0.032 -3.5886 -0.0507 -5.6258 -0.0507s-3.9106 0.0187 -5.6258 0.0507c-0.005 -0.7967 -0.0227 -1.5049 -0.0449 -2.105 -0.0574 -1.558 -1.0597 -2.9246 -2.7374 -3.0232C15.2153 0.4934 14.7822 0.48 14.2852 0.48s-0.93 0.0134 -1.3067 0.0355c-1.6777 0.0986 -2.6799 1.4652 -2.7374 3.0232 -0.0248 0.6735 -0.0441 1.483 -0.0461 2.4012 -0.8941 0.0508 -1.696 0.1037 -2.4085 0.1561 -3.3506 0.2464 -5.9855 2.7972 -6.2739 6.1687 -0.2611 3.0521 -0.5213 7.7378 -0.5213 14.2918s0.2602 11.2397 0.5213 14.2918c0.2884 3.3715 2.9233 5.9223 6.2739 6.1688 3.3412 0.2456 8.6466 0.5029 16.2135 0.5029s12.8723 -0.2573 16.2136 -0.5029c3.3504 -0.2465 5.9854 -2.7973 6.2739 -6.1688 0.261 -3.0521 0.5212 -7.7377 0.5212 -14.2918 0 -6.554 -0.2602 -11.2397 -0.5212 -14.2917 -0.2885 -3.3716 -2.9235 -5.9224 -6.2739 -6.1688 -0.7126 -0.0524 -1.5145 -0.1053 -2.4086 -0.1561Zm-17.7546 30.651c0.0515 1.098 0.7635 2.006 1.8558 2.1294 0.5506 0.0623 1.2432 0.1075 2.0938 0.1075 0.8506 0 1.5432 -0.0452 2.0938 -0.1075 1.0923 -0.1234 1.8043 -1.0314 1.8558 -2.1294 0.0416 -0.8863 0.0848 -2.1577 0.1121 -3.9275 1.7697 -0.0273 3.0411 -0.0704 3.9274 -0.112 1.0981 -0.0516 2.0061 -0.7635 2.1295 -1.8559 0.0623 -0.5505 0.1075 -1.2432 0.1075 -2.0938 0 -0.8506 -0.0452 -1.5432 -0.1075 -2.0938 -0.1234 -1.0923 -1.0314 -1.8042 -2.1295 -1.8558 -0.8863 -0.0416 -2.1577 -0.0848 -3.9274 -0.1121 -0.0273 -1.7697 -0.0705 -3.0411 -0.1121 -3.9274 -0.0515 -1.0981 -0.7635 -2.006 -1.8558 -2.1295 -0.5506 -0.0622 -1.2432 -0.1074 -2.0938 -0.1074 -0.8506 0 -1.5432 0.0452 -2.0938 0.1074 -1.0923 0.1235 -1.8043 1.0314 -1.8558 2.1295 -0.0416 0.8863 -0.0848 2.1577 -0.1121 3.9274 -1.7697 0.0273 -3.0411 0.0705 -3.9274 0.1121 -1.0981 0.0516 -2.0061 0.7635 -2.1295 1.8559 -0.0623 0.5505 -0.1075 1.2431 -0.1075 2.0937s0.0452 1.5433 0.1075 2.0938c0.1234 1.0924 1.0314 1.8043 2.1295 1.8559 0.8863 0.0416 2.1577 0.0847 3.9274 0.112 0.0273 1.7698 0.0705 3.0412 0.1121 3.9275Z" clip-rule="evenodd" stroke-width="1"></path>
  </g>
</svg>