<svg xmlns="http://www.w3.org/2000/svg" fill="none" viewBox="0 0 48 48" id="Wallet--Streamline-Plump">
  <desc>
    Wallet Streamline Icon: https://streamlinehq.com
  </desc>
  <g id="Solid/Money Shopping/Wallet/wallet--money-payment-finance-wallet">
    <path id="Union" fill="currentColor" fill-rule="evenodd" d="M36.1938 3.2331c0.8356 0.9161 0.0607 2.20771 -1.1694 2.36275 -5.2637 0.66336 -12.8885 1.28162 -18.5244 1.40421 -1.1695 0.02543 -1.4467 0.73011 -1.4441 1.39882 0.0013 0.34213 0.1486 0.62911 0.3795 0.84467 0.2216 0.20693 0.5377 0.2577 0.8409 0.25666 7.3472 -0.02507 14.3353 -0.49664 18.7901 -0.87471 2.3181 -0.19673 4.518 0.83504 5.8135 2.609 0.6161 0.8436 1.0277 1.8543 1.1502 2.9813 0.0082 0.0752 0.0151 0.1508 0.0206 0.227l0.0007 0.0092c0.0642 0.8773 0.1281 1.8585 0.1867 2.934 -2.3063 0.2497 -4.5727 0.4061 -6.7159 0.3489 -3.3792 -0.0902 -7.2636 2.2582 -7.4652 6.6604 -0.0344 0.7519 -0.057 1.6203 -0.057 2.6051 0 1.1418 0.0303 2.0893 0.0754 2.8679 0.1935 3.3371 2.6856 6.1107 6.1191 6.5052 2.6384 0.3031 5.4621 0.1881 8.061 -0.1625 -0.0782 1.3616 -0.1672 2.535 -0.2544 3.5166 -0.2536 2.8531 -2.2736 5.2353 -5.1906 5.727 -2.9836 0.5029 -7.8231 1.0459 -14.8105 1.0459 -7.0507 0 -11.87 -0.5529 -14.80798 -1.0602 -2.82421 -0.4877 -4.80025 -2.7679 -5.0926 -5.5356C1.81085 37.1727 1.5 32.8978 1.5 27.1584c0 -6.0597 0.3465 -10.7277 0.64622 -13.6323 0.25737 -2.4942 1.40385 -5.02582 3.82312 -6.43885C9.76792 4.86859 17.5564 1.85214 32.0776 1.52888c1.6574 -0.0369 3.1035 0.5939 4.1162 1.70422Zm7.5015 29.7092c-2.8871 0.5437 -6.2016 0.792 -9.1583 0.4523 -1.942 -0.2232 -3.355 -1.7741 -3.4666 -3.6985 -0.0415 -0.7158 -0.0704 -1.6053 -0.0704 -2.6942 0 -0.939 0.0215 -1.7616 0.0539 -2.4679 0.1095 -2.3924 2.238 -3.8561 4.3883 -3.7987 2.3855 0.0636 4.8577 -0.1164 7.2816 -0.383 2.0859 -0.2294 4.0958 1.1938 4.2106 3.4382 0.0388 0.7583 0.0656 1.6618 0.0656 2.7105 0 1.1664 -0.0332 2.104 -0.0795 2.8446 -0.1151 1.842 -1.4589 3.2641 -3.2252 3.5967ZM37 25c0.9665 0 1.75 0.7835 1.75 1.75v1c0 0.9665 -0.7835 1.75 -1.75 1.75s-1.75 -0.7835 -1.75 -1.75v-1c0 -0.9665 0.7835 -1.75 1.75 -1.75Z" clip-rule="evenodd" stroke-width="1"></path>
  </g>
</svg>