<svg xmlns="http://www.w3.org/2000/svg" fill="none" viewBox="0 0 48 48" id="Watch-Circle-Heartbeat-Monitor-2--Streamline-Plump">
  <desc>
    Watch Circle Heartbeat Monitor 2 Streamline Icon: https://streamlinehq.com
  </desc>
  <g id="watch-circle-heartbeat-monitor-2--device-timepiece-circle-watch-round-heart-beat-monitor-healthcare">
    <path id="Union" fill="currentColor" fill-rule="evenodd" d="M24.0004 0.5c-2.665 0 -4.678 0.177122 -6.1444 0.39408 -2.5824 0.38208 -4.2645 2.40914 -4.8238 4.66273l-1.0964 4.41762C7.99513 13.3671 5.5 18.3922 5.5 24c0 5.6078 2.49513 10.6329 6.4358 14.0256l1.0964 4.4176c0.5593 2.2536 2.2414 4.2806 4.8238 4.6627 1.4664 0.217 3.4794 0.3941 6.1444 0.3941s4.678 -0.1771 6.1444 -0.3941c2.5824 -0.3821 4.2645 -2.4091 4.8238 -4.6627l1.0966 -4.4185C40.0053 34.632 42.5 29.6073 42.5 24c0 -5.6073 -2.4947 -10.632 -6.4348 -14.02469l-1.0966 -4.4185c-0.5593 -2.25359 -2.2414 -4.28065 -4.8238 -4.662729C28.6784 0.677123 26.6654 0.5 24.0004 0.5ZM24 9.5C15.9919 9.5 9.5 15.9919 9.5 24c0 8.0081 6.4919 14.5 14.5 14.5 8.0081 0 14.5 -6.4919 14.5 -14.5 0 -8.0081 -6.4919 -14.5 -14.5 -14.5Zm6.8383 6.7122c-0.3206 -0.748 -1.0624 -1.2272 -1.876 -1.2118 -0.8137 0.0153 -1.5369 0.5221 -1.829 1.2816l-3.3723 8.7679 -2.9721 -5.9443c-0.3236 -0.6471 -0.9713 -1.069 -1.694 -1.1033 -0.7226 -0.0344 -1.4075 0.3242 -1.7909 0.9377L15.3915 22H13.5c-1.1046 0 -2 0.8954 -2 2s0.8954 2 2 2h3c0.6896 0 1.3305 -0.3552 1.696 -0.94l0.61 -0.9759 3.4051 6.8103c0.3544 0.7088 1.0938 1.1415 1.8853 1.1033 0.7915 -0.0382 1.4858 -0.5401 1.7703 -1.2797l3.2335 -8.4071 1.0615 2.4769C30.4769 25.5232 31.1999 26 32 26h2.5c1.1046 0 2 -0.8954 2 -2s-0.8954 -2 -2 -2h-1.1812l-2.4805 -5.7878Z" clip-rule="evenodd" stroke-width="1"></path>
  </g>
</svg>